<svg width="11.852539" height="14.927734" viewBox="0 0 11.8525 14.9277" fill="none" xmlns="http://www.w3.org/2000/svg" xmlns:xlink="http://www.w3.org/1999/xlink">
	<desc>
			Created with Pixso.
	</desc>
	<defs/>
	<path id="Vector" d="M9.76 0L2.08 0C0.94 0 0 0.93 0 2.08L0 12.83C0 13.98 0.94 14.92 2.08 14.92L9.76 14.92C10.91 14.92 11.85 13.98 11.85 12.83L11.85 2.08C11.85 0.93 10.91 0 9.76 0ZM2.85 10.77L8.99 10.77C9.3 10.77 9.55 11.02 9.55 11.33C9.55 11.63 9.3 11.89 8.99 11.89L2.85 11.89C2.55 11.89 2.29 11.63 2.29 11.33C2.29 11.02 2.55 10.77 2.85 10.77ZM2.29 7.49C2.29 7.18 2.55 6.93 2.85 6.93L8.99 6.93C9.3 6.93 9.55 7.18 9.55 7.49C9.55 7.8 9.3 8.05 8.99 8.05L2.85 8.05C2.55 8.05 2.29 7.8 2.29 7.49ZM8.99 4.21L2.85 4.21C2.55 4.21 2.29 3.97 2.29 3.65C2.29 3.35 2.55 3.09 2.85 3.09L8.99 3.09C9.3 3.09 9.55 3.35 9.55 3.65C9.55 3.97 9.3 4.21 8.99 4.21Z" fill="#000000" fill-opacity="1.000000" fill-rule="nonzero"/>
</svg>
