<svg width="14.927734" height="14.927734" viewBox="0 0 14.9277 14.9277" fill="none" xmlns="http://www.w3.org/2000/svg" xmlns:xlink="http://www.w3.org/1999/xlink">
	<desc>
			Created with Pixso.
	</desc>
	<defs/>
	<path id="Vector" d="M12.06 0L2.85 0C1.28 0 0 1.28 0 2.85L0 12.06C0 13.64 1.28 14.92 2.85 14.92L12.06 14.92C13.42 14.92 14.56 13.97 14.85 12.7C14.89 12.62 14.92 12.53 14.92 12.43L14.92 2.85C14.92 1.28 13.64 0 12.06 0ZM12.62 8.23C12.62 8.53 12.37 8.79 12.06 8.79C11.75 8.79 11.5 8.53 11.5 8.23L11.5 6.69C11.5 6.38 11.75 6.13 12.06 6.13C12.37 6.13 12.62 6.38 12.62 6.69L12.62 8.23ZM2.29 8.23L2.29 6.69C2.29 6.38 2.55 6.13 2.85 6.13C3.17 6.13 3.41 6.38 3.41 6.69L3.41 8.23C3.41 8.53 3.17 8.79 2.85 8.79C2.55 8.79 2.29 8.53 2.29 8.23ZM10.32 5.16L10.32 9.76C10.32 10.07 10.07 10.32 9.76 10.32C9.45 10.32 9.2 10.07 9.2 9.76L9.2 5.16C9.2 4.85 9.45 4.6 9.76 4.6C10.07 4.6 10.32 4.85 10.32 5.16ZM8.02 3.62L8.02 11.3C8.02 11.6 7.77 11.86 7.46 11.86C7.15 11.86 6.9 11.6 6.9 11.3L6.9 3.62C6.9 3.32 7.15 3.06 7.46 3.06C7.77 3.06 8.02 3.32 8.02 3.62ZM5.72 5.16L5.72 9.76C5.72 10.07 5.47 10.32 5.16 10.32C4.85 10.32 4.6 10.07 4.6 9.76L4.6 5.16C4.6 4.85 4.85 4.6 5.16 4.6C5.47 4.6 5.72 4.85 5.72 5.16Z" fill="#000000" fill-opacity="1.000000" fill-rule="nonzero"/>
</svg>
