<svg width="21.337891" height="21.415771" viewBox="0 0 21.3379 21.4158" fill="none" xmlns="http://www.w3.org/2000/svg" xmlns:xlink="http://www.w3.org/1999/xlink">
	<desc>
			Created with Pixso.
	</desc>
	<defs/>
	<mask id="mask_4_1343" fill="white">
		<path id="Path 8" d="M10.6191 0C12.0381 0.0507812 13.5088 0.0507812 14.9277 0.101318C16.1953 0.1521 17.3613 0.35498 18.4766 1.01392C19.8965 1.87573 20.7578 3.14307 21.0625 4.76538C21.2139 5.72852 21.2646 6.74243 21.3154 7.70557C21.3496 9.125 21.3379 10.5444 21.3271 11.9639L21.3271 11.9641C21.3213 12.6738 21.3154 13.3835 21.3154 14.0933C21.3154 15.2085 21.2646 16.3237 20.9102 17.3884C20.2002 19.4668 18.7305 20.7341 16.6006 21.1399C15.6377 21.3425 14.624 21.3425 13.6602 21.3933C12.2432 21.427 10.8477 21.4158 9.44531 21.4045C8.74121 21.3989 8.03516 21.3933 7.32324 21.3933C6.20801 21.3933 5.09277 21.3425 4.02832 20.9878C1.9502 20.2781 0.682617 18.8079 0.277344 16.6787C0.0742188 15.7153 0.0742188 14.7014 0.0234375 13.7383C-0.0107422 12.3188 0.000976562 10.8994 0.0126953 9.47998C0.0175781 8.77026 0.0234375 8.06055 0.0234375 7.35083C0.0234375 6.2356 0.0742188 5.12012 0.428711 4.05566C1.13867 1.97705 2.60938 0.709717 4.73828 0.304199C5.70117 0.101318 6.71484 0.101318 7.67871 0.0507812C8.6416 0 9.60449 0 10.6191 0ZM19.3389 7.95923C19.3389 8.82104 19.3389 9.63208 19.3896 10.4939C19.3389 12.1667 19.3389 13.7891 19.2373 15.3098C19.1865 16.5266 18.832 17.5913 17.8174 18.4023C17.209 18.9092 16.5 19.1628 15.7393 19.2134C14.9277 19.3149 14.1172 19.3655 13.3057 19.3655C12.6934 19.3655 12.0869 19.3713 11.4844 19.377C10.29 19.3882 9.11133 19.3992 7.93164 19.3655C6.96875 19.3655 6.00586 19.3149 5.09277 19.1628C3.26855 18.8586 2.15332 17.5913 2.00098 15.7661C1.89941 14.5496 1.84863 13.2822 1.84863 12.0654C1.84863 10.1392 1.84863 8.21265 1.89941 6.28613C1.9502 5.7793 2.00098 5.27222 2.15332 4.76538C2.60938 3.24463 3.67383 2.38281 5.19434 2.12915C6.05664 1.97705 6.96875 1.92651 7.88184 1.92651C9.70605 1.87573 11.4805 1.87573 13.3057 1.92651C14.2188 1.92651 15.2324 1.92651 16.1445 2.12915C17.9189 2.48413 18.9834 3.70068 19.1865 5.52588C19.2881 6.33691 19.3389 7.14795 19.3389 7.95923Z" clip-rule="evenodd" fill="" fill-opacity="1.000000" fill-rule="evenodd"/>
	</mask>
	<path id="Path 8" d="M10.6191 0C12.0381 0.0507812 13.5088 0.0507812 14.9277 0.101318C16.1953 0.1521 17.3613 0.35498 18.4766 1.01392C19.8965 1.87573 20.7578 3.14307 21.0625 4.76538C21.2139 5.72852 21.2646 6.74243 21.3154 7.70557C21.3496 9.125 21.3379 10.5444 21.3271 11.9639L21.3271 11.9641C21.3213 12.6738 21.3154 13.3835 21.3154 14.0933C21.3154 15.2085 21.2646 16.3237 20.9102 17.3884C20.2002 19.4668 18.7305 20.7341 16.6006 21.1399C15.6377 21.3425 14.624 21.3425 13.6602 21.3933C12.2432 21.427 10.8477 21.4158 9.44531 21.4045C8.74121 21.3989 8.03516 21.3933 7.32324 21.3933C6.20801 21.3933 5.09277 21.3425 4.02832 20.9878C1.9502 20.2781 0.682617 18.8079 0.277344 16.6787C0.0742188 15.7153 0.0742188 14.7014 0.0234375 13.7383C-0.0107422 12.3188 0.000976562 10.8994 0.0126953 9.47998C0.0175781 8.77026 0.0234375 8.06055 0.0234375 7.35083C0.0234375 6.2356 0.0742188 5.12012 0.428711 4.05566C1.13867 1.97705 2.60938 0.709717 4.73828 0.304199C5.70117 0.101318 6.71484 0.101318 7.67871 0.0507812C8.6416 0 9.60449 0 10.6191 0ZM19.3389 7.95923C19.3389 8.82104 19.3389 9.63208 19.3896 10.4939C19.3389 12.1667 19.3389 13.7891 19.2373 15.3098C19.1865 16.5266 18.832 17.5913 17.8174 18.4023C17.209 18.9092 16.5 19.1628 15.7393 19.2134C14.9277 19.3149 14.1172 19.3655 13.3057 19.3655C12.6934 19.3655 12.0869 19.3713 11.4844 19.377C10.29 19.3882 9.11133 19.3992 7.93164 19.3655C6.96875 19.3655 6.00586 19.3149 5.09277 19.1628C3.26855 18.8586 2.15332 17.5913 2.00098 15.7661C1.89941 14.5496 1.84863 13.2822 1.84863 12.0654C1.84863 10.1392 1.84863 8.21265 1.89941 6.28613C1.9502 5.7793 2.00098 5.27222 2.15332 4.76538C2.60938 3.24463 3.67383 2.38281 5.19434 2.12915C6.05664 1.97705 6.96875 1.92651 7.88184 1.92651C9.70605 1.87573 11.4805 1.87573 13.3057 1.92651C14.2188 1.92651 15.2324 1.92651 16.1445 2.12915C17.9189 2.48413 18.9834 3.70068 19.1865 5.52588C19.2881 6.33691 19.3389 7.14795 19.3389 7.95923Z" clip-rule="evenodd" fill="#535353" fill-opacity="1.000000" fill-rule="evenodd" mask="url(#mask_4_1343)"/>
	<path id="Path 8" d="" fill="#707070" fill-opacity="0.000000" fill-rule="nonzero"/>
	<mask id="mask_4_1346" fill="white">
		<path id="Path 9" d="M10.6172 16.1711C13.6592 16.1711 16.0928 13.7378 16.0928 10.6963C16.0928 7.65454 13.6592 5.22119 10.668 5.22119C7.62695 5.22119 5.14258 7.65454 5.14258 10.6455C5.14258 13.7378 7.57617 16.1711 10.6172 16.1711ZM14.166 10.696C14.166 12.6226 12.5439 14.2449 10.6172 14.2449C8.64062 14.2449 7.01855 12.6226 7.06934 10.696C7.06934 8.76978 8.64062 7.14746 10.6172 7.14746C12.5439 7.14746 14.166 8.76978 14.166 10.696Z" clip-rule="evenodd" fill="" fill-opacity="1.000000" fill-rule="evenodd"/>
	</mask>
	<path id="Path 9" d="M10.6172 16.1711C13.6592 16.1711 16.0928 13.7378 16.0928 10.6963C16.0928 7.65454 13.6592 5.22119 10.668 5.22119C7.62695 5.22119 5.14258 7.65454 5.14258 10.6455C5.14258 13.7378 7.57617 16.1711 10.6172 16.1711ZM14.166 10.696C14.166 12.6226 12.5439 14.2449 10.6172 14.2449C8.64062 14.2449 7.01855 12.6226 7.06934 10.696C7.06934 8.76978 8.64062 7.14746 10.6172 7.14746C12.5439 7.14746 14.166 8.76978 14.166 10.696Z" clip-rule="evenodd" fill="#535353" fill-opacity="1.000000" fill-rule="evenodd" mask="url(#mask_4_1346)"/>
	<path id="Path 9" d="" fill="#707070" fill-opacity="0.000000" fill-rule="nonzero"/>
	<path id="Path 10" d="M17.56 4.96C17.56 5.67 17 6.28 16.29 6.28C15.58 6.28 14.97 5.67 15.02 4.96C15.02 4.25 15.58 3.7 16.29 3.7C17 3.7 17.56 4.25 17.56 4.96Z" fill="#535353" fill-opacity="1.000000" fill-rule="nonzero"/>
	<path id="Path 10" d="M16.29 6.28C15.58 6.28 14.97 5.67 15.02 4.96C15.02 4.25 15.58 3.7 16.29 3.7C17 3.7 17.56 4.25 17.56 4.96C17.56 5.67 17 6.28 16.29 6.28Z" stroke="#707070" stroke-opacity="0" stroke-width="0.000000"/>
</svg>
