<svg width="44.167969" height="25.881104" viewBox="0 0 44.168 25.8811" fill="none" xmlns="http://www.w3.org/2000/svg" xmlns:xlink="http://www.w3.org/1999/xlink">
	<desc>
			Created with Pixso.
	</desc>
	<defs/>
	<path id="Vector" d="M42.51 22.56C40.56 22.56 39.7 21.81 38.49 20.75C37.14 19.6 35.46 18.15 32.3 18.15C29.12 18.15 27.47 19.6 26.12 20.75C24.91 21.81 24.02 22.56 22.08 22.56C20.16 22.56 19.27 21.81 18.06 20.75C16.71 19.6 15.03 18.15 11.88 18.15C8.7 18.15 7.02 19.6 5.67 20.75C4.46 21.81 3.59 22.56 1.65 22.56C0.75 22.56 0 23.31 0 24.22C0 25.15 0.75 25.88 1.65 25.88C4.83 25.88 6.49 24.44 7.83 23.27C9.05 22.21 9.93 21.46 11.88 21.46C13.82 21.46 14.68 22.21 15.9 23.27C17.24 24.44 18.92 25.88 22.08 25.88C25.26 25.88 26.94 24.44 28.28 23.27C29.5 22.21 30.36 21.46 32.3 21.46C34.22 21.46 35.11 22.21 36.32 23.27C37.67 24.44 39.35 25.88 42.51 25.88C43.41 25.88 44.16 25.15 44.16 24.22C44.16 23.31 43.41 22.56 42.51 22.56Z" fill="#141416" fill-opacity="1.000000" fill-rule="nonzero"/>
	<path id="Vector" d="M42.51 13.47C40.56 13.47 39.7 12.69 38.49 11.66C37.14 10.49 35.46 9.05 32.3 9.05C29.12 9.05 27.47 10.49 26.12 11.66C24.91 12.69 24.02 13.47 22.08 13.47C20.16 13.47 19.27 12.69 18.06 11.66C16.71 10.49 15.03 9.05 11.88 9.05C8.7 9.05 7.02 10.49 5.67 11.66C4.46 12.69 3.59 13.47 1.65 13.47C0.75 13.47 0 14.2 0 15.12C0 16.03 0.75 16.78 1.65 16.78C4.83 16.78 6.49 15.32 7.83 14.15C9.05 13.11 9.93 12.36 11.88 12.36C13.82 12.36 14.68 13.11 15.9 14.15C17.24 15.32 18.92 16.78 22.08 16.78C25.26 16.78 26.94 15.32 28.28 14.15C29.5 13.11 30.36 12.36 32.3 12.36C34.22 12.36 35.11 13.11 36.32 14.15C37.67 15.32 39.35 16.78 42.51 16.78C43.41 16.78 44.16 16.03 44.16 15.12C44.16 14.2 43.41 13.47 42.51 13.47Z" fill="#141416" fill-opacity="1.000000" fill-rule="nonzero"/>
	<path id="Vector" d="M1.65 7.72C4.83 7.72 6.49 6.27 7.83 5.12C9.05 4.06 9.93 3.31 11.88 3.31C13.82 3.31 14.68 4.06 15.9 5.12C17.24 6.27 18.92 7.72 22.08 7.72C25.26 7.72 26.94 6.27 28.28 5.12C29.5 4.06 30.36 3.31 32.3 3.31C34.22 3.31 35.11 4.06 36.32 5.12C37.67 6.27 39.35 7.72 42.51 7.72C43.41 7.72 44.16 6.97 44.16 6.07C44.16 5.14 43.41 4.41 42.51 4.41C40.56 4.41 39.7 3.66 38.49 2.6C37.14 1.43 35.46 0 32.3 0C29.12 0 27.47 1.43 26.12 2.6C24.91 3.66 24.02 4.41 22.08 4.41C20.16 4.41 19.27 3.66 18.06 2.6C16.71 1.43 15.03 0 11.88 0C8.7 0 7.02 1.43 5.67 2.6C4.46 3.66 3.59 4.41 1.65 4.41C0.75 4.41 0 5.14 0 6.07C0 6.97 0.75 7.72 1.65 7.72Z" fill="#141416" fill-opacity="1.000000" fill-rule="nonzero"/>
</svg>
