<svg width="14.554688" height="14.554688" viewBox="0 0 14.5547 14.5547" fill="none" xmlns="http://www.w3.org/2000/svg" xmlns:xlink="http://www.w3.org/1999/xlink">
	<desc>
			Created with Pixso.
	</desc>
	<defs/>
	<path id="Vector" d="M12.41 2.12C11.04 0.75 9.21 0 7.27 0C5.33 0 3.5 0.75 2.13 2.12C0.75 3.5 0 5.32 0 7.27C0 8.23 0.18 9.17 0.55 10.06C0.91 10.95 1.45 11.74 2.13 12.41C2.8 13.09 3.6 13.62 4.49 13.99C5.38 14.36 6.31 14.55 7.27 14.55C8.24 14.55 9.17 14.36 10.06 13.99C10.95 13.62 11.74 13.09 12.41 12.41C13.09 11.74 13.63 10.95 14 10.06C14.36 9.17 14.55 8.23 14.55 7.27C14.55 5.32 13.8 3.5 12.41 2.12ZM7.83 10.47L7.83 10.63C7.83 10.94 7.58 11.19 7.27 11.19C6.97 11.19 6.71 10.94 6.71 10.63L6.71 10.47C6.06 10.36 5.47 10.08 5.1 9.65C4.94 9.46 4.92 9.18 5.07 8.97C5.22 8.75 5.49 8.68 5.73 8.77L6.71 9.14L6.71 7.78C5.55 7.6 4.7 6.85 4.7 5.93C4.7 5 5.55 4.26 6.71 4.07L6.71 3.91C6.71 3.6 6.97 3.35 7.27 3.35C7.58 3.35 7.83 3.6 7.83 3.91L7.83 4.07C8.49 4.18 9.07 4.47 9.44 4.88C9.61 5.08 9.62 5.36 9.47 5.58C9.37 5.73 9.2 5.82 9.02 5.82C8.95 5.82 8.88 5.8 8.82 5.78L7.83 5.4L7.83 6.76C9 6.94 9.85 7.69 9.85 8.62C9.85 9.54 9 10.29 7.83 10.47Z" fill="#000000" fill-opacity="1.000000" fill-rule="nonzero"/>
</svg>
